<svg width="72" height="72" viewBox="0 0 72 72" fill="none" xmlns="http://www.w3.org/2000/svg">
<rect width="72" height="72" rx="36" fill="#D4DFF4" fill-opacity="0.5"/>
<path d="M47.8667 31.2C47.2167 31.2 46.7 31.7167 46.7 32.3667V35C46.7 40.9 41.9 45.7 36 45.7C30.1 45.7 25.3 40.9 25.3 35V32.35C25.3 31.7 24.7833 31.1833 24.1333 31.1833C23.4833 31.1833 22.9667 31.7 22.9667 32.35V34.9833C22.9667 41.7667 28.1833 47.35 34.8333 47.95V51.5C34.8333 52.15 35.35 52.6667 36 52.6667C36.65 52.6667 37.1667 52.15 37.1667 51.5V47.95C43.8 47.3667 49.0333 41.7667 49.0333 34.9833V32.35C49.0167 31.7167 48.5 31.2 47.8667 31.2Z" fill="#031C3D"/>
<path d="M36 19.3333C31.9334 19.3333 28.6334 22.6333 28.6334 26.7V35.2333C28.6334 39.3 31.9334 42.6 36 42.6C40.0667 42.6 43.3667 39.3 43.3667 35.2333V26.7C43.3667 22.6333 40.0667 19.3333 36 19.3333ZM38.1834 30.9167C38.0667 31.35 37.6834 31.6333 37.25 31.6333C37.1667 31.6333 37.0834 31.6167 37 31.6C36.35 31.4167 35.6667 31.4167 35.0167 31.6C34.4834 31.75 33.9667 31.4333 33.8334 30.9167C33.6834 30.4 34 29.8667 34.5167 29.7333C35.5 29.4667 36.5334 29.4667 37.5167 29.7333C38.0167 29.8667 38.3167 30.4 38.1834 30.9167ZM39.0667 27.6833C38.9167 28.0833 38.55 28.3167 38.15 28.3167C38.0334 28.3167 37.9334 28.3 37.8167 28.2667C36.65 27.8333 35.35 27.8333 34.1834 28.2667C33.6834 28.45 33.1167 28.1833 32.9334 27.6833C32.75 27.1833 33.0167 26.6167 33.5167 26.45C35.1167 25.8667 36.8834 25.8667 38.4834 26.45C38.9834 26.6333 39.25 27.1833 39.0667 27.6833Z" fill="#031C3D"/>
</svg>
