<svg width="24" height="25" viewBox="0 0 24 25" fill="none" xmlns="http://www.w3.org/2000/svg">
<path d="M12.6777 20.457C12.9524 20.521 12.9776 20.8808 12.71 20.97L11.13 21.49C7.15998 22.77 5.06997 21.7 3.77998 17.73L2.49997 13.78C1.21997 9.81 2.27997 7.71 6.24997 6.43L6.77397 6.25647C7.17684 6.12305 7.5689 6.52711 7.45451 6.93578C7.3978 7.13836 7.34326 7.34976 7.28997 7.57L6.30997 11.76C5.20997 16.47 6.81997 19.07 11.53 20.19L12.6777 20.457Z" fill="#37476A"/>
<path d="M17.17 3.70999L15.5 3.31999C12.16 2.52999 10.17 3.17999 9 5.59999C8.7 6.20999 8.46 6.94999 8.26 7.79999L7.28 11.99C6.3 16.17 7.59 18.23 11.76 19.22L13.44 19.62C14.02 19.76 14.56 19.85 15.06 19.89C18.18 20.19 19.84 18.73 20.68 15.12L21.66 10.94C22.64 6.75999 21.36 4.68999 17.17 3.70999ZM15.29 13.83C15.2 14.17 14.9 14.39 14.56 14.39C14.5 14.39 14.44 14.38 14.37 14.37L11.46 13.63C11.06 13.53 10.82 13.12 10.92 12.72C11.02 12.32 11.43 12.08 11.83 12.18L14.74 12.92C15.15 13.02 15.39 13.43 15.29 13.83ZM18.22 10.45C18.13 10.79 17.83 11.01 17.49 11.01C17.43 11.01 17.37 11 17.3 10.99L12.45 9.75999C12.05 9.65999 11.81 9.24999 11.91 8.84999C12.01 8.44999 12.42 8.20999 12.82 8.30999L17.67 9.53999C18.08 9.62999 18.32 10.04 18.22 10.45Z" fill="#37476A"/>
</svg>
