<svg width="20" height="20" viewBox="0 0 20 20" fill="none" xmlns="http://www.w3.org/2000/svg">
<path d="M9.55833 12.5333C9.61666 12.5917 9.68332 12.6333 9.75832 12.6667C9.83332 12.7 9.91666 12.7167 9.99999 12.7167C10.0833 12.7167 10.1583 12.7 10.2417 12.6667C10.3167 12.6333 10.3833 12.5917 10.4417 12.5333L12.9417 10.0333C13.1833 9.79167 13.1833 9.39167 12.9417 9.15C12.7 8.90834 12.3 8.90834 12.0583 9.15L10.625 10.5833V5.425C10.625 5.08334 10.3417 4.8 9.99999 4.8C9.65832 4.8 9.37499 5.08334 9.37499 5.425V10.5833L7.94166 9.15C7.69999 8.90834 7.29999 8.90834 7.05833 9.15C6.81666 9.39167 6.81666 9.79167 7.05833 10.0333L9.55833 12.5333Z" fill="#7C8EB5"/>
<path d="M15.5917 13.5667C15.4833 13.2417 15.1333 13.0667 14.8 13.175C11.7 14.2083 8.29166 14.2083 5.19166 13.175C4.86666 13.0667 4.50832 13.2417 4.39999 13.5667C4.29165 13.8917 4.46665 14.25 4.79165 14.3583C6.46665 14.9167 8.22499 15.2 9.99165 15.2C11.7583 15.2 13.5167 14.9167 15.1917 14.3583C15.525 14.2417 15.7 13.8917 15.5917 13.5667Z" fill="#7C8EB5"/>
</svg>
